<svg xmlns="http://www.w3.org/2000/svg" xmlns:xlink="http://www.w3.org/1999/xlink" width="500" zoomAndPan="magnify" viewBox="0 0 375 374.999991" height="500" preserveAspectRatio="xMidYMid meet" version="1.0"><defs><clipPath id="bf78a5e15b"><path d="M 17.25 0 L 357.75 0 C 362.324219 0 366.710938 1.816406 369.949219 5.050781 C 373.183594 8.289062 375 12.675781 375 17.25 L 375 357.75 C 375 362.324219 373.183594 366.710938 369.949219 369.949219 C 366.710938 373.183594 362.324219 375 357.75 375 L 17.25 375 C 12.675781 375 8.289062 373.183594 5.050781 369.949219 C 1.816406 366.710938 0 362.324219 0 357.75 L 0 17.25 C 0 12.675781 1.816406 8.289062 5.050781 5.050781 C 8.289062 1.816406 12.675781 0 17.25 0 Z M 17.25 0 " clip-rule="nonzero"/></clipPath><clipPath id="7db425dbf6"><path d="M 162 47 L 290 47 L 290 319 L 162 319 Z M 162 47 " clip-rule="nonzero"/></clipPath><clipPath id="3c85b91a8c"><path d="M 201.539062 37.304688 L 301.4375 55.171875 L 251.632812 333.640625 L 151.734375 315.773438 Z M 201.539062 37.304688 " clip-rule="nonzero"/></clipPath><clipPath id="455356fcab"><path d="M 262.851562 61.726562 C 244.074219 71.691406 233.585938 78.335938 227.335938 83.878906 C 222.183594 88.535156 218.347656 93.191406 214.9375 98.082031 C 211.761719 102.703125 209.160156 107.273438 207.402344 112.378906 C 205.527344 117.621094 202.527344 128.085938 204.332031 129.027344 C 205.707031 129.738281 209.6875 125.335938 212.871094 123.816406 C 216.15625 122.234375 219.84375 121.578125 223.808594 119.886719 C 228.792969 117.753906 234.183594 114.382812 239.9375 111.617188 C 246.382812 108.664062 254.601562 104.710938 260.570312 102.835938 C 264.679688 101.402344 267.796875 99.714844 271.660156 100.171875 C 276.144531 100.820312 282.980469 104.597656 285.851562 107.976562 C 288.335938 110.898438 288.625 115.058594 288.929688 118.597656 C 289.261719 121.988281 289.292969 123.929688 287.847656 128.859375 C 283.585938 143.746094 256.558594 194.058594 245.679688 214.964844 C 239.382812 227.082031 235.355469 234.882812 230.050781 243.539062 C 225.429688 251 221.65625 256.367188 216.070312 263.964844 C 208.765625 273.8125 196.238281 287.683594 189.429688 297.386719 C 184.5 304.484375 180.324219 313.652344 177.875 316.3125 C 177.15625 317.191406 176.738281 317.425781 176.007812 317.835938 C 175.289062 318.171875 174.574219 318.507812 173.519531 318.628906 C 172.164062 318.851562 169.835938 318.746094 168.25 318.152344 C 166.667969 317.558594 165.007812 316.332031 164.089844 315.164062 C 163.277344 313.933594 162.753906 312.136719 162.902344 310.769531 C 163.054688 309.398438 164.195312 307.746094 165.113281 306.824219 C 165.6875 306.230469 166.3125 305.878906 167.214844 305.574219 C 168.503906 305.183594 170.992188 304.933594 172.460938 305.117188 C 173.472656 305.222656 174.097656 305.410156 174.953125 305.875 C 176.238281 306.570312 177.960938 307.960938 178.671875 309.25 C 179.46875 310.554688 179.484375 312.570312 179.375 313.714844 C 179.226562 314.539062 178.9375 315.105469 178.347656 315.777344 C 177.613281 316.730469 175.980469 317.988281 174.390625 318.476562 C 172.8125 318.890625 170.746094 318.910156 169.132812 318.464844 C 167.429688 318.007812 165.605469 316.671875 164.632812 315.800781 C 164 315.144531 163.636719 314.539062 163.40625 313.722656 C 162.957031 312.558594 162.863281 310.992188 163.261719 309.28125 C 164.03125 306.554688 166.15625 303.605469 169.1875 299.265625 C 175.640625 289.964844 194.546875 268.789062 202.988281 257.289062 C 208.574219 249.6875 211.683594 244.902344 215.980469 237.691406 C 220.96875 229.210938 225.3125 220.691406 230.902344 209.378906 C 239.023438 192.859375 252.640625 162.917969 259.503906 147.648438 C 263.457031 138.671875 267.101562 131.964844 268.691406 126.207031 C 269.820312 122.539062 272.042969 117.976562 270.175781 116.871094 C 266.101562 114.4375 234.152344 134.515625 224.75 137.714844 C 220.855469 139.03125 219.535156 139.570312 216.113281 139.808594 C 211.167969 140.164062 202.734375 140.050781 197.632812 138.128906 C 193.214844 136.566406 188.445312 133.3125 186.820312 130.308594 C 185.328125 127.640625 186.320312 124.722656 186.804688 121.476562 C 187.335938 116.925781 188.761719 111.058594 190.898438 105.941406 C 193.164062 100.617188 196.878906 95.085938 200.003906 90.222656 C 202.730469 85.984375 204.078125 82.660156 208.316406 78.386719 C 215.277344 71.496094 232.070312 60.558594 240.820312 55.230469 C 246.199219 51.933594 250.679688 48.9375 254.480469 48.144531 C 256.917969 47.652344 259.128906 47.894531 260.910156 48.445312 C 262.324219 48.929688 263.492188 49.757812 264.449219 50.703125 C 265.316406 51.632812 266.15625 52.710938 266.394531 53.996094 C 266.792969 55.460938 266.453125 57.878906 265.652344 59.207031 C 265.085938 60.265625 262.851562 61.726562 262.851562 61.726562 " clip-rule="nonzero"/></clipPath><clipPath id="7abcc3f392"><path d="M 68 86 L 232 86 L 232 290.128906 L 68 290.128906 Z M 68 86 " clip-rule="nonzero"/></clipPath></defs><g clip-path="url(#bf78a5e15b)"><rect x="-37.5" width="450" fill="#272030" y="-37.499999" height="449.999989" fill-opacity="1"/></g><g clip-path="url(#7db425dbf6)"><g clip-path="url(#3c85b91a8c)"><g clip-path="url(#455356fcab)"><path fill="#c8d9e6" d="M 198.65625 34.210938 L 305.214844 53.269531 L 254.515625 336.734375 L 147.957031 317.675781 Z M 198.65625 34.210938 " fill-opacity="1" fill-rule="nonzero"/></g></g></g><g clip-path="url(#7abcc3f392)"><path fill="#272030" d="M 89.773438 187.371094 C 95.066406 164.476562 100.445312 145.53125 86.839844 127.6875 C 77.917969 115.996094 73.84375 101.941406 92.664062 92.246094 C 103.214844 86.828125 118.902344 84.628906 131.367188 88.089844 C 146.074219 92.203125 157.519531 99.375 159.597656 113.757812 C 161.757812 128.625 147.664062 149.648438 143.589844 167.53125 C 158.335938 156.207031 175.324219 162.277344 188.605469 171.648438 C 214.597656 190.019531 212.152344 210.269531 214.191406 232.757812 C 215.902344 251.863281 237.207031 264.738281 229.425781 273.902344 C 220.339844 284.660156 202.292969 287.265625 186.363281 285.800781 C 177.523438 284.984375 167.421875 281.804688 161.515625 274.960938 C 159.964844 273.167969 159.4375 270.398438 158.132812 274.023438 C 154.914062 283.152344 137.722656 289.75 112.707031 290.078125 C 94.414062 290.320312 88.347656 288.773438 77.386719 283.84375 C 60.847656 276.347656 71.277344 249.5 75.226562 237.726562 C 80.566406 221.1875 85.820312 204.359375 89.773438 187.371094 Z M 89.773438 187.371094 " fill-opacity="1" fill-rule="nonzero"/><path fill="#c8d9e6" d="M 214.191406 232.757812 C 212.152344 210.308594 214.636719 190.019531 188.605469 171.648438 C 175.324219 162.277344 158.335938 156.167969 143.589844 167.53125 C 147.664062 149.6875 161.800781 128.625 159.597656 113.757812 C 157.519531 99.375 146.03125 92.203125 131.367188 88.089844 C 118.902344 84.628906 103.214844 86.828125 92.703125 92.246094 C 73.882812 101.941406 77.957031 115.996094 86.878906 127.6875 C 100.484375 145.492188 95.109375 164.476562 89.8125 187.371094 C 85.820312 204.359375 80.566406 221.1875 75.269531 237.765625 C 71.277344 249.539062 60.886719 276.386719 77.425781 283.882812 C 88.347656 288.8125 94.457031 290.363281 112.75 290.117188 C 137.761719 289.792969 154.914062 283.191406 158.171875 274.066406 C 159.4375 270.441406 160.007812 273.210938 161.554688 275.003906 C 167.460938 281.804688 177.523438 285.023438 186.40625 285.839844 C 202.335938 287.304688 220.382812 284.699219 229.46875 273.945312 C 237.207031 264.738281 215.902344 251.863281 214.191406 232.757812 Z M 221.117188 272.476562 C 207.101562 283.027344 176.058594 282.867188 165.097656 267.957031 C 163.671875 265.46875 163.347656 263.3125 163.917969 260.824219 C 165.140625 251.292969 165.546875 243.757812 160.007812 231.207031 C 158.417969 227.625 152.796875 230.109375 154.140625 234.875 C 162.898438 268.28125 145.257812 278.589844 136.296875 280.871094 C 123.136719 284.210938 106.761719 283.761719 97.144531 283.027344 C 87.125 282.253906 77.101562 278.953125 85.25 254.105469 C 90.75 237.320312 93.886719 226.6875 97.878906 212.875 C 104.558594 187.863281 113.117188 165.292969 105.945312 139.382812 C 102.644531 127.445312 96.25 121.617188 91.726562 115.140625 C 80.726562 101.085938 108.960938 91.59375 119.511719 92.203125 C 124.480469 92.082031 134.136719 94.363281 138.25 97.011719 C 158.867188 110.375 153.773438 120.152344 144.933594 140.808594 C 140.410156 151.398438 125.5 186.191406 134.585938 191.078125 C 138.375 193.117188 141.46875 193.769531 151.410156 180.324219 C 165.914062 160.769531 199.359375 182.566406 203.351562 202.28125 C 207.550781 216.910156 204.535156 230.351562 209.667969 244.613281 C 214.351562 257.648438 229.222656 267.179688 221.117188 272.476562 Z M 221.117188 272.476562 " fill-opacity="1" fill-rule="nonzero"/></g></svg>